<svg id="svg" class="logo-img" version="1.1" width="90" height="90" viewBox="25 125 330 200" xmlns="http://www.w3.org/2000/svg" xmlns:xlink="http://www.w3.org/1999/xlink"><g id="svgg"><path id="path0" d="M120.600 74.991 C 120.600 75.493,119.398 75.865,118.670 75.589 C 117.848 75.276,117.434 75.359,117.364 75.850 C 117.307 76.253,117.200 76.295,116.350 76.252 C 115.518 76.209,115.400 76.253,115.400 76.602 C 115.400 76.958,115.265 77.000,114.133 77.000 C 113.197 77.000,112.867 77.071,112.867 77.273 C 112.867 77.438,113.010 77.508,113.233 77.449 C 113.435 77.396,113.600 77.458,113.600 77.585 C 113.600 77.713,113.488 77.803,113.350 77.785 C 112.578 77.685,112.200 77.821,112.200 78.200 C 112.200 78.511,112.067 78.600,111.600 78.600 C 111.131 78.600,111.000 78.688,111.000 79.005 C 111.000 79.253,110.806 79.484,110.500 79.600 C 110.225 79.705,110.000 79.893,110.000 80.018 C 110.000 80.174,109.719 80.203,109.100 80.110 C 108.296 79.990,108.200 80.017,108.200 80.364 C 108.200 80.585,108.027 80.799,107.800 80.858 C 107.580 80.915,107.400 81.095,107.400 81.258 C 107.400 81.420,107.220 81.600,107.000 81.658 C 106.780 81.715,106.600 81.895,106.600 82.058 C 106.600 82.220,106.420 82.400,106.200 82.458 C 105.980 82.515,105.800 82.706,105.800 82.881 C 105.800 83.070,105.632 83.200,105.388 83.200 C 105.012 83.200,104.988 83.281,105.110 84.100 C 105.203 84.719,105.174 85.000,105.018 85.000 C 104.893 85.000,104.705 85.225,104.600 85.500 C 104.484 85.806,104.253 86.000,104.005 86.000 C 103.688 86.000,103.600 86.131,103.600 86.600 C 103.600 87.067,103.511 87.200,103.200 87.200 C 102.937 87.200,102.800 87.333,102.800 87.589 C 102.800 87.869,102.689 87.956,102.400 87.900 C 102.033 87.829,102.000 87.931,102.000 89.111 C 102.000 90.265,101.958 90.400,101.602 90.400 C 101.253 90.400,101.209 90.518,101.252 91.350 C 101.295 92.200,101.253 92.307,100.850 92.364 C 100.359 92.434,100.276 92.848,100.589 93.670 C 100.867 94.403,100.493 95.600,99.985 95.600 C 99.592 95.600,99.589 95.759,99.644 111.000 L 99.700 126.400 99.266 126.400 C 98.558 126.400,98.200 126.183,98.200 125.754 C 98.200 125.381,98.112 125.360,97.050 125.479 C 94.745 125.738,93.800 125.594,93.800 124.987 C 93.800 124.609,93.520 124.600,81.219 124.600 C 68.875 124.600,68.639 124.607,68.739 124.987 C 68.893 125.577,67.896 125.726,65.450 125.479 C 64.281 125.360,64.200 125.379,64.200 125.762 C 64.200 126.306,63.611 126.472,62.278 126.306 C 61.290 126.182,61.200 126.204,61.200 126.569 C 61.200 127.082,60.916 127.176,59.750 127.048 C 58.894 126.955,58.800 126.985,58.800 127.351 C 58.800 127.869,58.456 127.996,57.425 127.858 C 56.684 127.759,56.600 127.790,56.600 128.170 C 56.600 128.647,55.893 128.920,55.214 128.705 C 54.891 128.602,54.800 128.660,54.800 128.965 C 54.800 129.461,54.294 129.664,53.764 129.381 C 53.316 129.141,53.081 129.292,52.958 129.900 C 52.874 130.313,52.844 130.319,51.971 130.100 C 51.501 129.982,51.459 130.017,51.543 130.456 C 51.653 131.035,51.171 131.305,50.586 130.992 C 50.270 130.823,50.200 130.853,50.200 131.153 C 50.200 131.652,49.814 132.000,49.260 132.000 C 49.007 132.000,48.800 132.090,48.800 132.200 C 48.800 132.310,48.530 132.400,48.200 132.400 C 47.685 132.400,47.600 132.475,47.600 132.927 C 47.600 133.437,47.570 133.450,46.700 133.331 C 45.895 133.221,45.800 133.249,45.800 133.604 C 45.800 133.822,45.716 134.000,45.614 134.000 C 45.512 134.000,45.399 134.193,45.364 134.430 C 45.329 134.666,45.120 134.958,44.900 135.080 C 44.680 135.201,44.428 135.412,44.340 135.550 C 44.252 135.688,44.005 135.800,43.790 135.800 C 43.576 135.800,43.400 135.935,43.400 136.100 C 43.400 136.317,43.178 136.400,42.600 136.400 C 41.933 136.400,41.800 136.467,41.800 136.800 C 41.800 137.067,41.667 137.200,41.400 137.200 C 41.178 137.200,41.000 137.333,41.000 137.500 C 41.000 137.665,40.865 137.800,40.700 137.800 C 40.521 137.800,40.400 137.984,40.400 138.254 C 40.400 138.862,38.794 140.600,38.232 140.600 C 37.994 140.600,37.800 140.690,37.800 140.800 C 37.800 140.910,37.665 141.000,37.500 141.000 C 37.333 141.000,37.200 141.178,37.200 141.400 C 37.200 141.667,37.067 141.800,36.800 141.800 C 36.467 141.800,36.400 141.933,36.400 142.600 C 36.400 143.178,36.317 143.400,36.100 143.400 C 35.935 143.400,35.800 143.576,35.800 143.790 C 35.800 144.005,35.688 144.252,35.550 144.340 C 35.413 144.428,35.201 144.680,35.080 144.900 C 34.958 145.120,34.666 145.329,34.430 145.364 C 34.193 145.399,34.000 145.512,34.000 145.614 C 34.000 145.716,33.822 145.800,33.604 145.800 C 33.249 145.800,33.221 145.895,33.331 146.700 C 33.450 147.570,33.437 147.600,32.927 147.600 C 32.475 147.600,32.400 147.685,32.400 148.200 C 32.400 148.530,32.310 148.800,32.200 148.800 C 32.090 148.800,32.000 149.007,32.000 149.260 C 32.000 149.814,31.652 150.200,31.153 150.200 C 30.853 150.200,30.823 150.270,30.992 150.586 C 31.305 151.171,31.035 151.653,30.456 151.543 C 30.017 151.459,29.982 151.501,30.100 151.971 C 30.319 152.844,30.313 152.874,29.900 152.958 C 29.292 153.081,29.141 153.316,29.381 153.764 C 29.654 154.274,29.466 154.800,29.011 154.800 C 28.735 154.800,28.669 154.971,28.683 155.650 C 28.698 156.398,28.643 156.508,28.226 156.567 C 27.795 156.628,27.762 156.707,27.860 157.442 C 27.996 158.456,27.867 158.800,27.351 158.800 C 26.985 158.800,26.955 158.894,27.048 159.750 C 27.174 160.903,27.081 161.200,26.593 161.200 C 26.259 161.200,26.224 161.353,26.260 162.650 C 26.298 164.031,26.278 164.103,25.832 164.166 C 25.389 164.229,25.371 164.291,25.481 165.366 C 25.737 167.861,25.585 168.895,24.987 168.739 C 24.605 168.639,24.600 169.220,24.600 212.500 C 24.600 255.780,24.605 256.361,24.987 256.261 C 25.585 256.105,25.737 257.139,25.481 259.634 C 25.371 260.709,25.389 260.771,25.832 260.834 C 26.278 260.897,26.298 260.969,26.260 262.350 C 26.224 263.647,26.259 263.800,26.593 263.800 C 27.081 263.800,27.174 264.097,27.048 265.250 C 26.955 266.106,26.985 266.200,27.351 266.200 C 27.867 266.200,27.996 266.544,27.860 267.558 C 27.762 268.293,27.795 268.372,28.226 268.433 C 28.643 268.492,28.698 268.602,28.683 269.350 C 28.669 270.029,28.735 270.200,29.011 270.200 C 29.466 270.200,29.654 270.726,29.381 271.236 C 29.141 271.684,29.292 271.919,29.900 272.042 C 30.313 272.126,30.319 272.156,30.100 273.029 C 29.982 273.499,30.017 273.541,30.456 273.457 C 31.035 273.347,31.305 273.829,30.992 274.414 C 30.823 274.730,30.853 274.800,31.153 274.800 C 31.652 274.800,32.000 275.186,32.000 275.740 C 32.000 275.993,32.090 276.200,32.200 276.200 C 32.310 276.200,32.400 276.470,32.400 276.800 C 32.400 277.315,32.475 277.400,32.927 277.400 C 33.437 277.400,33.450 277.430,33.331 278.300 C 33.221 279.105,33.249 279.200,33.604 279.200 C 33.822 279.200,34.000 279.284,34.000 279.386 C 34.000 279.488,34.193 279.601,34.430 279.636 C 34.666 279.671,34.958 279.880,35.080 280.100 C 35.201 280.320,35.413 280.572,35.550 280.660 C 35.688 280.748,35.800 280.995,35.800 281.210 C 35.800 281.424,35.935 281.600,36.100 281.600 C 36.317 281.600,36.400 281.822,36.400 282.400 C 36.400 283.067,36.467 283.200,36.800 283.200 C 37.067 283.200,37.200 283.333,37.200 283.600 C 37.200 283.822,37.333 284.000,37.500 284.000 C 37.665 284.000,37.800 284.135,37.800 284.300 C 37.800 284.483,37.986 284.600,38.276 284.600 C 38.913 284.600,40.400 286.087,40.400 286.724 C 40.400 287.014,40.517 287.200,40.700 287.200 C 40.865 287.200,41.000 287.335,41.000 287.500 C 41.000 287.667,41.178 287.800,41.400 287.800 C 41.667 287.800,41.800 287.933,41.800 288.200 C 41.800 288.533,41.933 288.600,42.600 288.600 C 43.178 288.600,43.400 288.683,43.400 288.900 C 43.400 289.065,43.576 289.200,43.790 289.200 C 44.005 289.200,44.252 289.312,44.340 289.450 C 44.428 289.588,44.680 289.799,44.900 289.920 C 45.120 290.042,45.329 290.334,45.364 290.570 C 45.399 290.807,45.512 291.000,45.614 291.000 C 45.716 291.000,45.800 291.178,45.800 291.396 C 45.800 291.751,45.895 291.779,46.700 291.669 C 47.570 291.550,47.600 291.563,47.600 292.073 C 47.600 292.525,47.685 292.600,48.200 292.600 C 48.530 292.600,48.800 292.690,48.800 292.800 C 48.800 292.910,49.007 293.000,49.260 293.000 C 49.814 293.000,50.200 293.348,50.200 293.847 C 50.200 294.147,50.270 294.177,50.586 294.008 C 51.171 293.695,51.653 293.965,51.543 294.544 C 51.459 294.983,51.501 295.018,51.971 294.900 C 52.844 294.681,52.874 294.687,52.958 295.100 C 53.081 295.708,53.316 295.859,53.764 295.619 C 54.274 295.346,54.800 295.534,54.800 295.989 C 54.800 296.265,54.971 296.331,55.650 296.317 C 56.398 296.302,56.508 296.357,56.567 296.774 C 56.628 297.205,56.707 297.238,57.442 297.140 C 58.456 297.004,58.800 297.133,58.800 297.649 C 58.800 298.015,58.894 298.045,59.750 297.952 C 60.916 297.824,61.200 297.918,61.200 298.431 C 61.200 298.796,61.290 298.818,62.278 298.694 C 63.611 298.528,64.200 298.694,64.200 299.238 C 64.200 299.621,64.281 299.640,65.450 299.521 C 67.896 299.274,68.893 299.423,68.739 300.013 C 68.639 300.393,68.907 300.400,84.119 300.400 L 99.600 300.400 99.600 320.486 L 99.600 340.572 100.050 340.636 C 100.461 340.694,100.494 340.790,100.433 341.734 C 100.371 342.688,100.402 342.773,100.833 342.834 C 101.251 342.893,101.297 342.997,101.270 343.827 C 101.240 344.735,101.624 345.200,102.405 345.200 C 102.648 345.200,104.800 347.352,104.800 347.595 C 104.800 348.376,105.265 348.760,106.173 348.730 C 107.003 348.703,107.107 348.749,107.166 349.167 C 107.227 349.598,107.312 349.629,108.266 349.567 C 109.225 349.505,109.305 349.535,109.367 349.975 L 109.434 350.449 112.467 350.375 L 115.500 350.300 115.566 350.767 C 115.627 351.198,115.712 351.229,116.666 351.167 C 117.622 351.105,117.705 351.135,117.767 351.570 C 117.824 351.978,117.923 352.029,118.517 351.960 C 118.985 351.905,119.200 351.962,119.200 352.140 C 119.200 352.283,119.344 352.400,119.521 352.400 C 119.938 352.400,122.600 355.062,122.600 355.479 C 122.600 355.656,122.717 355.800,122.860 355.800 C 123.038 355.800,123.095 356.015,123.040 356.483 C 122.971 357.077,123.022 357.176,123.430 357.233 C 123.865 357.295,123.895 357.378,123.833 358.334 C 123.771 359.288,123.802 359.373,124.233 359.434 C 124.807 359.515,124.942 361.662,124.394 362.008 C 124.195 362.134,124.181 362.195,124.350 362.197 C 124.530 362.199,124.600 362.672,124.600 363.886 C 124.600 365.482,124.624 365.576,125.050 365.636 C 125.461 365.694,125.494 365.790,125.433 366.734 C 125.371 367.688,125.402 367.773,125.833 367.834 C 126.251 367.893,126.297 367.997,126.270 368.827 C 126.240 369.735,126.624 370.200,127.405 370.200 C 127.648 370.200,129.800 372.352,129.800 372.595 C 129.800 373.376,130.265 373.760,131.173 373.730 C 132.003 373.703,132.107 373.749,132.166 374.167 C 132.227 374.598,132.312 374.629,133.266 374.567 C 134.210 374.506,134.306 374.539,134.364 374.950 L 134.428 375.400 225.000 375.400 L 315.572 375.400 315.636 374.950 C 315.694 374.539,315.790 374.506,316.734 374.567 C 317.688 374.629,317.773 374.598,317.834 374.167 C 317.893 373.749,317.997 373.703,318.827 373.730 C 319.735 373.760,320.200 373.376,320.200 372.595 C 320.200 372.352,322.352 370.200,322.595 370.200 C 323.376 370.200,323.760 369.735,323.730 368.827 C 323.703 367.997,323.749 367.893,324.167 367.834 C 324.598 367.773,324.629 367.688,324.567 366.734 C 324.506 365.790,324.539 365.694,324.950 365.636 C 325.376 365.576,325.400 365.482,325.400 363.886 C 325.400 362.672,325.470 362.199,325.650 362.197 C 325.819 362.195,325.805 362.134,325.606 362.008 C 325.058 361.662,325.193 359.515,325.767 359.434 C 326.198 359.373,326.229 359.288,326.167 358.334 C 326.105 357.378,326.135 357.295,326.570 357.233 C 326.978 357.176,327.029 357.077,326.960 356.483 C 326.905 356.015,326.962 355.800,327.140 355.800 C 327.283 355.800,327.400 355.656,327.400 355.479 C 327.400 355.062,330.062 352.400,330.479 352.400 C 330.656 352.400,330.800 352.283,330.800 352.140 C 330.800 351.962,331.015 351.905,331.483 351.960 C 332.077 352.029,332.176 351.978,332.233 351.570 C 332.295 351.135,332.378 351.105,333.334 351.167 C 334.288 351.229,334.373 351.198,334.434 350.767 L 334.500 350.300 337.533 350.375 L 340.566 350.449 340.633 349.975 C 340.695 349.535,340.775 349.505,341.734 349.567 C 342.688 349.629,342.773 349.598,342.834 349.167 C 342.893 348.749,342.997 348.703,343.827 348.730 C 344.735 348.760,345.200 348.376,345.200 347.595 C 345.200 347.352,347.352 345.200,347.595 345.200 C 348.376 345.200,348.760 344.735,348.730 343.827 C 348.703 342.997,348.749 342.893,349.167 342.834 C 349.598 342.773,349.629 342.688,349.567 341.734 C 349.506 340.790,349.539 340.694,349.950 340.636 L 350.400 340.572 350.400 218.086 C 350.400 96.716,350.396 95.600,350.009 95.600 C 349.507 95.600,349.135 94.398,349.411 93.670 C 349.724 92.848,349.641 92.434,349.150 92.364 C 348.747 92.307,348.705 92.200,348.748 91.350 C 348.791 90.518,348.747 90.400,348.398 90.400 C 348.042 90.400,348.000 90.265,348.000 89.111 C 348.000 87.931,347.967 87.829,347.600 87.900 C 347.311 87.956,347.200 87.869,347.200 87.589 C 347.200 87.333,347.063 87.200,346.800 87.200 C 346.489 87.200,346.400 87.067,346.400 86.600 C 346.400 86.131,346.312 86.000,345.995 86.000 C 345.747 86.000,345.516 85.806,345.400 85.500 C 345.295 85.225,345.107 85.000,344.982 85.000 C 344.826 85.000,344.797 84.719,344.890 84.100 C 345.012 83.281,344.988 83.200,344.612 83.200 C 344.368 83.200,344.200 83.070,344.200 82.881 C 344.200 82.706,344.020 82.515,343.800 82.458 C 343.580 82.400,343.400 82.220,343.400 82.058 C 343.400 81.895,343.220 81.715,343.000 81.658 C 342.780 81.600,342.600 81.420,342.600 81.258 C 342.600 81.095,342.420 80.915,342.200 80.858 C 341.973 80.799,341.800 80.585,341.800 80.364 C 341.800 80.017,341.704 79.990,340.900 80.110 C 340.281 80.203,340.000 80.174,340.000 80.018 C 340.000 79.893,339.775 79.705,339.500 79.600 C 339.194 79.484,339.000 79.253,339.000 79.005 C 339.000 78.688,338.869 78.600,338.400 78.600 C 337.933 78.600,337.800 78.511,337.800 78.200 C 337.800 77.821,337.422 77.685,336.650 77.785 C 336.513 77.803,336.400 77.713,336.400 77.585 C 336.400 77.458,336.565 77.396,336.767 77.449 C 336.990 77.508,337.133 77.438,337.133 77.273 C 337.133 77.071,336.803 77.000,335.867 77.000 C 334.735 77.000,334.600 76.958,334.600 76.602 C 334.600 76.253,334.482 76.209,333.650 76.252 C 332.800 76.295,332.693 76.253,332.636 75.850 C 332.566 75.359,332.152 75.276,331.330 75.589 C 330.602 75.865,329.400 75.493,329.400 74.991 C 329.400 74.604,328.429 74.600,225.000 74.600 C 121.571 74.600,120.600 74.604,120.600 74.991 M182.187 150.721 C 184.199 151.727,182.699 148.920,204.162 191.857 C 214.866 213.271,223.701 230.839,223.794 230.896 C 223.887 230.954,224.089 230.953,224.242 230.895 C 224.394 230.836,233.314 213.194,244.064 191.690 C 265.078 149.651,264.064 151.542,266.148 150.552 C 267.516 149.903,270.713 149.897,271.923 150.542 C 274.518 151.925,275.451 153.772,275.792 158.200 C 276.125 162.512,276.598 167.697,276.797 169.200 C 276.906 170.025,277.087 172.005,277.199 173.600 C 277.310 175.195,277.497 177.130,277.615 177.900 C 277.732 178.670,277.951 180.740,278.102 182.500 C 278.424 186.267,278.909 191.488,279.196 194.300 C 279.309 195.400,279.535 197.875,279.698 199.800 C 279.861 201.725,280.083 203.840,280.191 204.500 C 280.300 205.160,280.489 207.139,280.612 208.898 C 280.735 210.656,280.871 212.153,280.914 212.223 C 280.986 212.340,281.630 219.258,281.991 223.800 C 282.254 227.105,282.796 232.647,282.998 234.100 C 283.105 234.870,283.331 237.345,283.500 239.600 C 283.670 241.855,283.861 243.925,283.926 244.200 C 283.990 244.475,284.214 246.590,284.422 248.900 C 285.060 255.979,285.197 257.430,285.410 259.400 C 285.675 261.862,286.311 268.580,286.687 272.900 C 286.849 274.770,287.036 276.615,287.101 277.000 C 287.167 277.385,287.351 279.410,287.511 281.500 C 287.671 283.590,287.884 285.840,287.984 286.500 C 289.089 293.781,287.179 297.347,282.059 297.561 C 277.278 297.761,275.509 295.393,274.995 288.100 C 274.870 286.340,274.690 284.495,274.593 284.000 C 274.496 283.505,274.321 281.660,274.202 279.900 C 274.084 278.140,273.901 276.205,273.795 275.600 C 273.688 274.995,273.459 272.835,273.285 270.800 C 272.823 265.389,272.616 263.119,272.402 261.100 C 272.297 260.110,272.077 257.725,271.913 255.800 C 271.749 253.875,271.518 251.715,271.401 251.000 C 271.283 250.285,271.106 248.530,271.009 247.100 C 270.612 241.283,270.178 236.254,270.006 235.490 C 269.905 235.045,269.722 233.110,269.599 231.190 C 269.475 229.271,269.296 227.430,269.201 227.100 C 269.106 226.770,268.928 224.925,268.806 223.000 C 268.683 221.075,268.502 219.185,268.403 218.800 C 268.305 218.415,268.127 216.660,268.009 214.900 C 267.891 213.140,267.702 211.160,267.588 210.500 C 267.474 209.840,267.247 207.725,267.083 205.800 C 266.791 202.367,266.699 201.359,266.082 194.900 C 265.915 193.140,265.652 190.266,265.500 188.514 C 265.235 185.465,264.868 182.246,264.669 181.218 C 264.478 180.226,263.510 182.083,246.701 215.695 C 228.787 251.518,229.194 250.761,227.300 251.767 C 225.861 252.532,222.377 252.558,220.930 251.815 C 218.988 250.817,219.466 251.705,201.272 215.326 C 191.812 196.409,183.990 181.000,183.848 181.000 C 183.380 181.000,183.215 181.863,182.898 185.981 C 182.726 188.226,182.548 190.122,182.503 190.195 C 182.458 190.267,182.280 192.166,182.107 194.413 C 181.935 196.661,181.707 198.995,181.601 199.600 C 181.495 200.205,181.314 202.140,181.199 203.900 C 181.084 205.660,180.906 207.505,180.803 208.000 C 180.701 208.495,180.518 210.340,180.397 212.100 C 180.275 213.860,180.100 215.615,180.006 216.000 C 179.913 216.385,179.728 218.320,179.596 220.300 C 179.464 222.280,179.317 223.964,179.270 224.043 C 179.145 224.252,178.409 232.408,178.190 236.000 C 178.087 237.705,177.914 239.505,177.807 240.000 C 177.700 240.495,177.517 242.295,177.402 244.000 C 177.287 245.705,177.099 247.640,176.986 248.300 C 176.873 248.960,176.648 251.120,176.486 253.100 C 176.324 255.080,176.105 257.510,176.001 258.500 C 175.758 260.796,175.511 263.399,175.013 268.900 C 174.795 271.320,174.569 273.480,174.512 273.700 C 174.454 273.920,174.270 275.890,174.101 278.077 C 173.933 280.265,173.710 282.650,173.606 283.377 C 173.502 284.105,173.318 286.005,173.197 287.600 C 172.900 291.515,172.627 293.123,172.069 294.243 C 169.797 298.810,162.823 298.847,160.587 294.304 L 159.937 292.984 160.080 289.242 C 160.159 287.184,160.301 284.870,160.395 284.100 C 160.489 283.330,160.668 281.665,160.792 280.400 C 160.916 279.135,161.159 276.705,161.331 275.000 C 161.504 273.295,161.717 270.775,161.806 269.400 C 161.894 268.025,162.024 266.585,162.093 266.200 C 162.163 265.815,162.347 264.015,162.502 262.200 C 162.658 260.385,162.924 257.280,163.095 255.300 C 163.265 253.320,163.497 251.115,163.611 250.400 C 163.725 249.685,163.943 247.615,164.096 245.800 C 164.776 237.722,165.009 235.209,165.199 233.900 C 165.311 233.130,165.535 230.790,165.697 228.700 C 165.860 226.610,166.080 224.360,166.188 223.700 C 166.295 223.040,166.486 221.015,166.613 219.200 C 166.740 217.385,166.880 215.839,166.924 215.765 C 166.968 215.691,167.227 212.946,167.498 209.665 C 167.769 206.384,168.089 202.935,168.210 202.000 C 168.417 200.394,168.566 198.817,169.281 190.700 C 169.446 188.830,169.676 186.571,169.792 185.679 C 169.908 184.787,170.137 182.357,170.301 180.279 C 170.465 178.201,170.685 175.915,170.791 175.200 C 170.897 174.485,171.088 172.460,171.215 170.700 C 171.342 168.940,171.483 167.436,171.529 167.359 C 171.601 167.237,171.981 163.383,172.601 156.479 C 173.075 151.190,177.642 148.447,182.187 150.721 M90.250 162.792 C 90.464 162.797,90.600 162.956,90.600 163.200 C 90.600 163.552,90.733 163.600,91.700 163.600 C 92.667 163.600,92.800 163.648,92.800 164.000 C 92.800 164.321,92.933 164.400,93.479 164.400 C 93.897 164.400,94.201 164.515,94.272 164.700 C 94.336 164.865,94.548 165.002,94.744 165.006 C 94.940 165.009,95.321 165.309,95.591 165.673 C 95.861 166.037,96.423 166.592,96.841 166.906 C 97.258 167.220,97.600 167.639,97.600 167.838 C 97.600 168.037,97.690 168.200,97.800 168.200 C 98.240 168.200,97.998 169.000,97.550 169.027 L 97.100 169.054 97.550 169.141 C 97.798 169.189,98.000 169.357,98.000 169.514 C 98.000 169.683,98.198 169.800,98.486 169.800 C 98.954 169.800,98.967 169.839,98.859 170.883 C 98.754 171.908,98.773 171.969,99.224 172.033 C 99.651 172.093,99.699 172.199,99.692 173.050 C 99.687 173.572,99.665 193.842,99.642 218.093 L 99.600 262.187 86.150 262.243 C 71.517 262.305,72.000 262.321,72.000 261.777 C 72.000 261.453,71.844 261.400,70.900 261.400 C 69.933 261.400,69.800 261.352,69.800 261.000 C 69.800 260.689,69.667 260.600,69.200 260.600 C 68.756 260.600,68.604 260.509,68.616 260.250 C 68.625 260.041,68.672 260.001,68.732 260.150 C 68.872 260.496,69.200 260.464,69.200 260.104 C 69.200 259.868,69.017 259.833,68.304 259.930 C 67.584 260.029,67.383 259.989,67.283 259.727 C 67.214 259.547,67.070 259.400,66.963 259.400 C 66.711 259.400,65.600 258.289,65.600 258.037 C 65.600 257.930,65.453 257.786,65.273 257.717 C 65.011 257.617,64.971 257.416,65.070 256.696 C 65.167 255.983,65.132 255.800,64.896 255.800 C 64.536 255.800,64.504 256.128,64.850 256.268 C 64.999 256.328,64.959 256.375,64.750 256.384 C 64.491 256.396,64.400 256.244,64.400 255.800 C 64.400 255.333,64.311 255.200,64.000 255.200 C 63.648 255.200,63.600 255.067,63.600 254.100 C 63.600 253.133,63.552 253.000,63.200 253.000 C 62.979 253.000,62.799 252.866,62.798 252.700 C 62.797 252.535,62.797 234.445,62.797 212.500 C 62.797 190.555,62.797 172.465,62.798 172.300 C 62.799 172.134,62.979 172.000,63.200 172.000 C 63.552 172.000,63.600 171.867,63.600 170.900 C 63.600 169.933,63.648 169.800,64.000 169.800 C 64.311 169.800,64.400 169.667,64.400 169.200 C 64.400 168.756,64.491 168.604,64.750 168.616 C 64.959 168.625,64.999 168.672,64.850 168.732 C 64.504 168.872,64.536 169.200,64.896 169.200 C 65.132 169.200,65.167 169.017,65.070 168.304 C 64.971 167.584,65.011 167.383,65.273 167.283 C 65.453 167.214,65.600 167.070,65.600 166.963 C 65.600 166.711,66.711 165.600,66.963 165.600 C 67.070 165.600,67.214 165.453,67.283 165.273 C 67.383 165.011,67.584 164.971,68.304 165.070 C 69.017 165.167,69.200 165.132,69.200 164.896 C 69.200 164.536,68.872 164.504,68.732 164.850 C 68.672 164.999,68.625 164.959,68.616 164.750 C 68.604 164.491,68.756 164.400,69.200 164.400 C 69.667 164.400,69.800 164.311,69.800 164.000 C 69.800 163.648,69.933 163.600,70.900 163.600 C 71.853 163.600,72.000 163.548,72.000 163.215 C 72.000 163.003,72.151 162.800,72.336 162.765 C 72.587 162.716,88.039 162.740,90.250 162.792 " stroke="none" fill="#252525" fill-rule="evenodd"></path><path id="path1" d="M118.400 75.077 C 118.400 75.663,118.938 75.840,119.905 75.573 C 121.127 75.236,120.862 74.600,119.500 74.600 C 118.474 74.600,118.400 74.632,118.400 75.077 M329.400 74.991 C 329.400 75.431,330.501 75.841,331.195 75.659 C 332.205 75.395,331.683 74.600,330.500 74.600 C 329.542 74.600,329.400 74.650,329.400 74.991 M116.036 75.850 C 116.086 76.202,116.230 76.300,116.700 76.300 C 117.170 76.300,117.314 76.202,117.364 75.850 C 117.420 75.454,117.340 75.400,116.700 75.400 C 116.060 75.400,115.980 75.454,116.036 75.850 M332.636 75.850 C 332.686 76.202,332.830 76.300,333.300 76.300 C 333.770 76.300,333.914 76.202,333.964 75.850 C 334.020 75.454,333.940 75.400,333.300 75.400 C 332.660 75.400,332.580 75.454,332.636 75.850 M114.400 76.600 C 114.400 76.893,114.533 77.000,114.900 77.000 C 115.267 77.000,115.400 76.893,115.400 76.600 C 115.400 76.307,115.267 76.200,114.900 76.200 C 114.533 76.200,114.400 76.307,114.400 76.600 M334.600 76.600 C 334.600 76.893,334.733 77.000,335.100 77.000 C 335.467 77.000,335.600 76.893,335.600 76.600 C 335.600 76.307,335.467 76.200,335.100 76.200 C 334.733 76.200,334.600 76.307,334.600 76.600 M112.867 77.487 C 112.867 77.615,113.032 77.732,113.233 77.748 C 113.435 77.763,113.600 77.701,113.600 77.611 C 113.600 77.521,113.435 77.404,113.233 77.351 C 113.032 77.298,112.867 77.360,112.867 77.487 M336.750 77.338 C 336.286 77.459,336.299 77.783,336.767 77.748 C 336.968 77.732,337.133 77.603,337.133 77.460 C 337.133 77.317,337.126 77.210,337.117 77.223 C 337.108 77.236,336.943 77.288,336.750 77.338 M111.400 78.200 C 111.400 78.467,111.533 78.600,111.800 78.600 C 112.067 78.600,112.200 78.467,112.200 78.200 C 112.200 77.933,112.067 77.800,111.800 77.800 C 111.533 77.800,111.400 77.933,111.400 78.200 M337.800 78.200 C 337.800 78.467,337.933 78.600,338.200 78.600 C 338.467 78.600,338.600 78.467,338.600 78.200 C 338.600 77.933,338.467 77.800,338.200 77.800 C 337.933 77.800,337.800 77.933,337.800 78.200 M109.800 78.919 C 109.800 79.094,109.620 79.285,109.400 79.342 C 108.797 79.500,108.879 80.200,109.500 80.200 C 109.775 80.200,110.000 80.108,110.000 79.995 C 110.000 79.882,110.225 79.705,110.500 79.600 C 111.251 79.314,111.180 78.600,110.400 78.600 C 109.984 78.600,109.800 78.698,109.800 78.919 M339.000 79.005 C 339.000 79.253,339.194 79.484,339.500 79.600 C 339.775 79.705,340.000 79.882,340.000 79.995 C 340.000 80.108,340.225 80.200,340.500 80.200 C 341.121 80.200,341.203 79.500,340.600 79.342 C 340.380 79.285,340.200 79.094,340.200 78.919 C 340.200 78.698,340.016 78.600,339.600 78.600 C 339.131 78.600,339.000 78.688,339.000 79.005 M104.400 84.319 C 104.400 84.494,104.220 84.685,104.000 84.742 C 103.425 84.892,103.430 86.000,104.005 86.000 C 104.253 86.000,104.484 85.806,104.600 85.500 C 104.705 85.225,104.882 85.000,104.995 85.000 C 105.108 85.000,105.200 84.775,105.200 84.500 C 105.200 84.133,105.093 84.000,104.800 84.000 C 104.567 84.000,104.400 84.133,104.400 84.319 M344.800 84.500 C 344.800 84.775,344.892 85.000,345.005 85.000 C 345.118 85.000,345.295 85.225,345.400 85.500 C 345.516 85.806,345.747 86.000,345.995 86.000 C 346.570 86.000,346.575 84.892,346.000 84.742 C 345.780 84.685,345.600 84.494,345.600 84.319 C 345.600 84.133,345.433 84.000,345.200 84.000 C 344.907 84.000,344.800 84.133,344.800 84.500 M102.800 86.800 C 102.800 87.067,102.933 87.200,103.200 87.200 C 103.467 87.200,103.600 87.067,103.600 86.800 C 103.600 86.533,103.467 86.400,103.200 86.400 C 102.933 86.400,102.800 86.533,102.800 86.800 M346.400 86.800 C 346.400 87.067,346.533 87.200,346.800 87.200 C 347.067 87.200,347.200 87.067,347.200 86.800 C 347.200 86.533,347.067 86.400,346.800 86.400 C 346.533 86.400,346.400 86.533,346.400 86.800 M101.200 89.900 C 101.200 90.267,101.307 90.400,101.600 90.400 C 101.893 90.400,102.000 90.267,102.000 89.900 C 102.000 89.533,101.893 89.400,101.600 89.400 C 101.307 89.400,101.200 89.533,101.200 89.900 M348.000 89.900 C 348.000 90.267,348.107 90.400,348.400 90.400 C 348.693 90.400,348.800 90.267,348.800 89.900 C 348.800 89.533,348.693 89.400,348.400 89.400 C 348.107 89.400,348.000 89.533,348.000 89.900 M100.400 91.700 C 100.400 92.340,100.454 92.420,100.850 92.364 C 101.202 92.314,101.300 92.170,101.300 91.700 C 101.300 91.230,101.202 91.086,100.850 91.036 C 100.454 90.980,100.400 91.060,100.400 91.700 M348.677 91.288 C 348.478 91.807,348.695 92.299,349.152 92.364 C 349.544 92.420,349.600 92.339,349.600 91.714 C 349.600 90.960,348.923 90.648,348.677 91.288 M99.600 94.500 C 99.600 95.862,100.236 96.127,100.573 94.905 C 100.840 93.938,100.663 93.400,100.077 93.400 C 99.632 93.400,99.600 93.474,99.600 94.500 M349.341 93.805 C 349.159 94.499,349.569 95.600,350.009 95.600 C 350.350 95.600,350.400 95.458,350.400 94.500 C 350.400 93.317,349.605 92.795,349.341 93.805 M66.000 125.006 C 66.000 125.557,66.676 125.772,67.769 125.567 C 68.815 125.372,68.889 125.321,68.731 124.909 C 68.528 124.379,66.000 124.470,66.000 125.006 M93.800 124.987 C 93.800 125.398,94.131 125.556,95.100 125.609 C 96.265 125.673,96.400 125.621,96.400 125.100 C 96.400 124.618,96.353 124.600,95.100 124.600 C 93.948 124.600,93.800 124.644,93.800 124.987 M62.200 125.900 C 62.200 126.415,63.037 126.603,63.884 126.279 C 64.676 125.974,64.230 125.400,63.200 125.400 C 62.267 125.400,62.200 125.433,62.200 125.900 M98.200 125.767 C 98.200 126.195,98.565 126.400,99.330 126.400 C 99.732 126.400,99.815 126.313,99.764 125.950 C 99.675 125.322,98.200 125.149,98.200 125.767 M59.800 126.587 C 59.800 127.016,60.365 127.277,60.872 127.083 C 61.528 126.831,61.262 126.200,60.500 126.200 C 59.941 126.200,59.800 126.278,59.800 126.587 M57.400 127.387 C 57.400 127.816,57.965 128.077,58.472 127.883 C 59.128 127.631,58.862 127.000,58.100 127.000 C 57.541 127.000,57.400 127.078,57.400 127.387 M55.000 128.206 C 55.000 128.694,55.420 128.889,56.100 128.718 C 56.988 128.495,56.761 127.800,55.800 127.800 C 55.129 127.800,55.000 127.866,55.000 128.206 M53.600 128.979 C 53.600 129.403,54.045 129.647,54.500 129.472 C 55.079 129.250,54.855 128.600,54.200 128.600 C 53.745 128.600,53.600 128.691,53.600 128.979 M52.250 129.332 C 52.113 129.388,52.000 129.606,52.000 129.817 C 52.000 130.155,52.114 130.212,52.750 130.196 C 52.833 130.194,52.960 129.969,53.033 129.696 C 53.167 129.195,52.900 129.070,52.250 129.332 M50.400 130.465 C 50.400 130.993,50.806 131.262,51.311 131.068 C 51.840 130.865,51.576 130.109,50.950 130.037 C 50.482 129.983,50.400 130.047,50.400 130.465 M48.706 131.450 C 48.627 131.808,48.519 131.988,48.465 131.850 C 48.315 131.469,48.089 131.552,48.055 132.000 C 48.034 132.273,48.148 132.400,48.412 132.400 C 48.626 132.400,48.800 132.310,48.800 132.200 C 48.800 132.090,49.007 132.000,49.260 132.000 C 49.812 132.000,50.200 131.653,50.200 131.160 C 50.200 130.427,48.876 130.684,48.706 131.450 M46.521 132.716 C 46.305 133.280,46.389 133.400,47.000 133.400 C 47.507 133.400,47.600 133.322,47.600 132.900 C 47.600 132.316,46.732 132.168,46.521 132.716 M44.200 134.400 C 44.200 134.667,44.067 134.800,43.800 134.800 C 43.533 134.800,43.400 134.933,43.400 135.200 C 43.400 135.420,43.275 135.600,43.121 135.600 C 42.968 135.600,42.788 135.742,42.721 135.916 C 42.545 136.375,42.560 136.400,43.000 136.400 C 43.222 136.400,43.400 136.267,43.400 136.100 C 43.400 135.935,43.576 135.800,43.790 135.800 C 44.005 135.800,44.252 135.688,44.340 135.550 C 44.428 135.412,44.680 135.201,44.900 135.080 C 45.595 134.697,45.539 134.000,44.814 134.000 C 44.333 134.000,44.200 134.087,44.200 134.400 M39.446 138.245 C 39.395 138.440,39.220 138.600,39.058 138.600 C 38.895 138.600,38.718 138.772,38.663 138.982 C 38.608 139.191,38.412 139.402,38.228 139.451 C 37.693 139.591,37.698 140.600,38.234 140.600 C 38.786 140.600,40.400 138.861,40.400 138.267 C 40.400 137.718,39.589 137.699,39.446 138.245 M35.850 142.732 C 35.712 142.788,35.600 142.961,35.600 143.117 C 35.600 143.273,35.420 143.400,35.200 143.400 C 34.933 143.400,34.800 143.533,34.800 143.800 C 34.800 144.067,34.667 144.200,34.400 144.200 C 34.087 144.200,34.000 144.333,34.000 144.814 C 34.000 145.539,34.697 145.595,35.080 144.900 C 35.201 144.680,35.413 144.428,35.550 144.340 C 35.688 144.252,35.800 144.005,35.800 143.790 C 35.800 143.576,35.935 143.400,36.100 143.400 C 36.267 143.400,36.400 143.222,36.400 143.000 C 36.400 142.596,36.304 142.549,35.850 142.732 M32.650 146.532 C 32.152 146.734,32.355 147.600,32.900 147.600 C 33.322 147.600,33.400 147.507,33.400 147.000 C 33.400 146.419,33.216 146.304,32.650 146.532 M31.600 148.226 C 31.600 148.303,31.713 148.411,31.850 148.465 C 31.988 148.519,31.808 148.627,31.450 148.706 C 30.684 148.876,30.427 150.200,31.160 150.200 C 31.653 150.200,32.000 149.812,32.000 149.260 C 32.000 149.007,32.090 148.800,32.200 148.800 C 32.310 148.800,32.400 148.626,32.400 148.412 C 32.400 148.148,32.273 148.034,32.000 148.055 C 31.780 148.072,31.600 148.148,31.600 148.226 M176.976 150.276 C 174.339 151.218,172.888 153.276,172.601 156.479 C 171.981 163.383,171.601 167.237,171.529 167.359 C 171.483 167.436,171.342 168.940,171.215 170.700 C 171.088 172.460,170.897 174.485,170.791 175.200 C 170.685 175.915,170.465 178.201,170.301 180.279 C 170.137 182.357,169.908 184.787,169.792 185.679 C 169.676 186.571,169.446 188.830,169.281 190.700 C 168.566 198.817,168.417 200.394,168.210 202.000 C 168.089 202.935,167.769 206.384,167.498 209.665 C 167.227 212.946,166.968 215.691,166.924 215.765 C 166.880 215.839,166.740 217.385,166.613 219.200 C 166.486 221.015,166.295 223.040,166.188 223.700 C 166.080 224.360,165.860 226.610,165.697 228.700 C 165.535 230.790,165.311 233.130,165.199 233.900 C 165.009 235.209,164.776 237.722,164.096 245.800 C 163.943 247.615,163.725 249.685,163.611 250.400 C 163.497 251.115,163.265 253.320,163.095 255.300 C 162.924 257.280,162.658 260.385,162.502 262.200 C 162.347 264.015,162.163 265.815,162.093 266.200 C 162.024 266.585,161.894 268.025,161.806 269.400 C 161.717 270.775,161.504 273.295,161.331 275.000 C 161.159 276.705,160.916 279.135,160.792 280.400 C 160.668 281.665,160.489 283.330,160.395 284.100 C 160.301 284.870,160.159 287.184,160.080 289.242 L 159.937 292.984 160.587 294.304 C 162.823 298.847,169.797 298.810,172.069 294.243 C 172.627 293.123,172.900 291.515,173.197 287.600 C 173.318 286.005,173.502 284.105,173.606 283.377 C 173.710 282.650,173.933 280.265,174.101 278.077 C 174.270 275.890,174.454 273.920,174.512 273.700 C 174.569 273.480,174.795 271.320,175.013 268.900 C 175.511 263.399,175.758 260.796,176.001 258.500 C 176.105 257.510,176.324 255.080,176.486 253.100 C 176.648 251.120,176.873 248.960,176.986 248.300 C 177.099 247.640,177.287 245.705,177.402 244.000 C 177.517 242.295,177.700 240.495,177.807 240.000 C 177.914 239.505,178.087 237.705,178.190 236.000 C 178.409 232.408,179.145 224.252,179.270 224.043 C 179.317 223.964,179.464 222.280,179.596 220.300 C 179.728 218.320,179.913 216.385,180.006 216.000 C 180.100 215.615,180.275 213.860,180.397 212.100 C 180.518 210.340,180.701 208.495,180.803 208.000 C 180.906 207.505,181.084 205.660,181.199 203.900 C 181.314 202.140,181.495 200.205,181.601 199.600 C 181.707 198.995,181.935 196.661,182.107 194.413 C 182.280 192.166,182.458 190.267,182.503 190.195 C 182.548 190.122,182.726 188.226,182.898 185.981 C 183.215 181.863,183.380 181.000,183.848 181.000 C 183.990 181.000,191.812 196.409,201.272 215.326 C 219.466 251.705,218.988 250.817,220.930 251.815 C 222.377 252.558,225.861 252.532,227.300 251.767 C 229.194 250.761,228.787 251.518,246.701 215.695 C 263.510 182.083,264.478 180.226,264.669 181.218 C 264.868 182.246,265.235 185.465,265.500 188.514 C 265.652 190.266,265.915 193.140,266.082 194.900 C 266.699 201.359,266.791 202.367,267.083 205.800 C 267.247 207.725,267.474 209.840,267.588 210.500 C 267.702 211.160,267.891 213.140,268.009 214.900 C 268.127 216.660,268.305 218.415,268.403 218.800 C 268.502 219.185,268.683 221.075,268.806 223.000 C 268.928 224.925,269.106 226.770,269.201 227.100 C 269.296 227.430,269.475 229.271,269.599 231.190 C 269.722 233.110,269.905 235.045,270.006 235.490 C 270.178 236.254,270.612 241.283,271.009 247.100 C 271.106 248.530,271.283 250.285,271.401 251.000 C 271.518 251.715,271.749 253.875,271.913 255.800 C 272.077 257.725,272.297 260.110,272.402 261.100 C 272.616 263.119,272.823 265.389,273.285 270.800 C 273.459 272.835,273.688 274.995,273.795 275.600 C 273.901 276.205,274.084 278.140,274.202 279.900 C 274.321 281.660,274.496 283.505,274.593 284.000 C 274.690 284.495,274.870 286.340,274.995 288.100 C 275.509 295.393,277.278 297.761,282.059 297.561 C 287.179 297.347,289.089 293.781,287.984 286.500 C 287.884 285.840,287.671 283.590,287.511 281.500 C 287.351 279.410,287.167 277.385,287.101 277.000 C 287.036 276.615,286.849 274.770,286.687 272.900 C 286.311 268.580,285.675 261.862,285.410 259.400 C 285.197 257.430,285.060 255.979,284.422 248.900 C 284.214 246.590,283.990 244.475,283.926 244.200 C 283.861 243.925,283.670 241.855,283.500 239.600 C 283.331 237.345,283.105 234.870,282.998 234.100 C 282.796 232.647,282.254 227.105,281.991 223.800 C 281.630 219.258,280.986 212.340,280.914 212.223 C 280.871 212.153,280.735 210.656,280.612 208.898 C 280.489 207.139,280.300 205.160,280.191 204.500 C 280.083 203.840,279.861 201.725,279.698 199.800 C 279.535 197.875,279.309 195.400,279.196 194.300 C 278.909 191.488,278.424 186.267,278.102 182.500 C 277.951 180.740,277.732 178.670,277.615 177.900 C 277.497 177.130,277.310 175.195,277.199 173.600 C 277.087 172.005,276.906 170.025,276.797 169.200 C 276.598 167.697,276.125 162.512,275.792 158.200 C 275.451 153.772,274.518 151.925,271.923 150.542 C 270.713 149.897,267.516 149.903,266.148 150.552 C 264.064 151.542,265.078 149.651,244.064 191.690 C 233.314 213.194,224.394 230.836,224.242 230.895 C 224.089 230.953,223.887 230.954,223.794 230.896 C 223.701 230.839,214.866 213.271,204.162 191.857 C 193.458 170.443,184.459 152.590,184.164 152.182 C 182.893 150.427,179.255 149.462,176.976 150.276 M30.037 150.950 C 30.109 151.576,30.865 151.840,31.068 151.311 C 31.262 150.806,30.993 150.400,30.465 150.400 C 30.047 150.400,29.983 150.482,30.037 150.950 M29.321 152.316 C 29.073 152.964,29.181 153.171,29.696 153.033 C 29.969 152.960,30.194 152.833,30.196 152.750 C 30.212 152.114,30.155 152.000,29.821 152.000 C 29.613 152.000,29.388 152.142,29.321 152.316 M28.600 154.200 C 28.600 154.655,28.691 154.800,28.979 154.800 C 29.403 154.800,29.647 154.355,29.472 153.900 C 29.250 153.321,28.600 153.545,28.600 154.200 M27.800 155.800 C 27.800 156.544,27.846 156.621,28.250 156.564 C 28.619 156.512,28.700 156.374,28.700 155.800 C 28.700 155.226,28.619 155.088,28.250 155.036 C 27.846 154.979,27.800 155.056,27.800 155.800 M27.000 158.100 C 27.000 158.862,27.631 159.128,27.883 158.472 C 28.077 157.965,27.816 157.400,27.387 157.400 C 27.078 157.400,27.000 157.541,27.000 158.100 M26.200 160.500 C 26.200 161.262,26.831 161.528,27.083 160.872 C 27.277 160.365,27.016 159.800,26.587 159.800 C 26.278 159.800,26.200 159.941,26.200 160.500 M25.400 163.214 C 25.400 164.151,25.434 164.223,25.850 164.164 C 26.586 164.059,26.644 162.200,25.911 162.200 C 25.430 162.200,25.400 162.260,25.400 163.214 M72.350 162.738 C 71.337 163.002,71.996 163.600,73.300 163.600 C 74.436 163.600,74.600 163.553,74.600 163.226 C 74.600 162.747,73.351 162.476,72.350 162.738 M88.338 162.744 C 87.944 162.804,87.795 162.929,87.840 163.164 C 87.944 163.707,90.600 163.773,90.600 163.232 C 90.600 162.673,89.866 162.515,88.338 162.744 M69.800 164.000 C 69.800 164.258,69.933 164.400,70.177 164.400 C 70.385 164.400,70.600 164.221,70.658 164.000 C 70.741 163.682,70.664 163.600,70.281 163.600 C 69.933 163.600,69.800 163.711,69.800 164.000 M91.800 164.000 C 91.800 164.293,91.933 164.400,92.300 164.400 C 92.667 164.400,92.800 164.293,92.800 164.000 C 92.800 163.707,92.667 163.600,92.300 163.600 C 91.933 163.600,91.800 163.707,91.800 164.000 M68.600 164.700 C 68.600 164.901,68.399 165.000,67.994 165.000 C 67.639 165.000,67.340 165.125,67.272 165.300 C 67.209 165.465,67.070 165.600,66.963 165.600 C 66.711 165.600,65.600 166.711,65.600 166.963 C 65.600 167.070,65.465 167.209,65.300 167.272 C 65.125 167.340,65.000 167.639,65.000 167.994 C 65.000 168.399,64.901 168.600,64.700 168.600 C 64.535 168.600,64.400 168.739,64.400 168.908 C 64.400 169.154,64.487 169.135,64.838 168.808 C 65.078 168.584,65.438 168.400,65.638 168.400 C 65.867 168.400,66.000 168.253,66.000 168.000 C 66.000 167.733,66.133 167.600,66.400 167.600 C 66.667 167.600,66.800 167.467,66.800 167.200 C 66.800 166.933,66.933 166.800,67.200 166.800 C 67.467 166.800,67.600 166.667,67.600 166.400 C 67.600 166.133,67.733 166.000,68.000 166.000 C 68.253 166.000,68.400 165.867,68.400 165.638 C 68.400 165.438,68.584 165.078,68.808 164.838 C 69.135 164.487,69.154 164.400,68.908 164.400 C 68.739 164.400,68.600 164.535,68.600 164.700 M93.400 164.800 C 93.400 165.067,93.533 165.200,93.800 165.200 C 94.067 165.200,94.200 165.333,94.200 165.600 C 94.200 165.867,94.333 166.000,94.600 166.000 C 94.867 166.000,95.000 166.133,95.000 166.400 C 95.000 166.667,95.133 166.800,95.400 166.800 C 95.667 166.800,95.800 166.933,95.800 167.200 C 95.800 167.420,95.929 167.600,96.087 167.600 C 96.244 167.600,96.430 167.780,96.500 168.000 C 96.570 168.220,96.798 168.400,97.007 168.400 C 97.263 168.400,97.350 168.498,97.272 168.700 C 97.192 168.908,97.286 169.000,97.579 169.000 C 97.867 169.000,98.000 168.873,98.000 168.600 C 98.000 168.380,97.910 168.200,97.800 168.200 C 97.690 168.200,97.600 168.037,97.600 167.838 C 97.600 167.639,97.258 167.220,96.841 166.906 C 96.423 166.592,95.861 166.037,95.591 165.673 C 95.321 165.309,94.940 165.009,94.744 165.006 C 94.548 165.002,94.336 164.865,94.272 164.700 C 94.097 164.243,93.400 164.323,93.400 164.800 M24.600 167.306 C 24.600 168.511,24.913 169.153,25.308 168.758 C 25.545 168.521,25.750 166.680,25.576 166.354 C 25.094 165.454,24.600 165.936,24.600 167.306 M63.600 170.281 C 63.600 170.664,63.682 170.741,64.000 170.658 C 64.221 170.600,64.400 170.385,64.400 170.177 C 64.400 169.933,64.258 169.800,64.000 169.800 C 63.711 169.800,63.600 169.933,63.600 170.281 M98.000 170.177 C 98.000 170.642,98.728 170.876,98.887 170.462 C 99.089 169.936,99.009 169.800,98.500 169.800 C 98.144 169.800,98.000 169.908,98.000 170.177 M62.704 172.583 C 62.499 173.516,62.778 174.600,63.222 174.600 C 63.554 174.600,63.600 174.441,63.600 173.300 C 63.600 171.836,62.977 171.338,62.704 172.583 M98.800 173.286 C 98.800 174.457,98.843 174.600,99.191 174.600 C 99.982 174.600,100.038 172.148,99.250 172.036 C 98.823 171.975,98.800 172.038,98.800 173.286 M62.710 251.117 C 62.516 252.149,62.745 253.000,63.216 253.000 C 63.555 253.000,63.600 252.849,63.600 251.700 C 63.600 250.151,62.969 249.737,62.710 251.117 M63.600 254.719 C 63.600 255.067,63.711 255.200,64.000 255.200 C 64.258 255.200,64.400 255.067,64.400 254.823 C 64.400 254.615,64.221 254.400,64.000 254.342 C 63.682 254.259,63.600 254.336,63.600 254.719 M64.400 256.092 C 64.400 256.261,64.535 256.400,64.700 256.400 C 64.901 256.400,65.000 256.601,65.000 257.006 C 65.000 257.361,65.125 257.660,65.300 257.728 C 65.465 257.791,65.600 257.930,65.600 258.037 C 65.600 258.289,66.711 259.400,66.963 259.400 C 67.070 259.400,67.209 259.535,67.272 259.700 C 67.340 259.875,67.639 260.000,67.994 260.000 C 68.399 260.000,68.600 260.099,68.600 260.300 C 68.600 260.465,68.739 260.600,68.908 260.600 C 69.154 260.600,69.135 260.513,68.808 260.162 C 68.584 259.922,68.400 259.562,68.400 259.362 C 68.400 259.133,68.253 259.000,68.000 259.000 C 67.733 259.000,67.600 258.867,67.600 258.600 C 67.600 258.333,67.467 258.200,67.200 258.200 C 66.933 258.200,66.800 258.067,66.800 257.800 C 66.800 257.533,66.667 257.400,66.400 257.400 C 66.133 257.400,66.000 257.267,66.000 257.000 C 66.000 256.747,65.867 256.600,65.638 256.600 C 65.438 256.600,65.078 256.416,64.838 256.192 C 64.487 255.865,64.400 255.846,64.400 256.092 M24.733 256.333 C 24.371 256.695,24.596 259.000,24.993 259.000 C 25.577 259.000,25.789 258.429,25.590 257.397 C 25.495 256.904,25.414 256.433,25.409 256.350 C 25.398 256.164,24.914 256.152,24.733 256.333 M69.800 261.000 C 69.800 261.289,69.933 261.400,70.281 261.400 C 70.664 261.400,70.741 261.318,70.658 261.000 C 70.600 260.779,70.385 260.600,70.177 260.600 C 69.933 260.600,69.800 260.742,69.800 261.000 M25.400 261.786 C 25.400 262.740,25.430 262.800,25.911 262.800 C 26.644 262.800,26.586 260.941,25.850 260.836 C 25.434 260.777,25.400 260.849,25.400 261.786 M72.000 261.778 C 72.000 262.252,72.714 262.451,73.796 262.277 C 75.267 262.042,74.903 261.400,73.300 261.400 C 72.158 261.400,72.000 261.446,72.000 261.778 M26.200 264.500 C 26.200 265.262,26.831 265.528,27.083 264.872 C 27.277 264.365,27.016 263.800,26.587 263.800 C 26.278 263.800,26.200 263.941,26.200 264.500 M27.000 266.900 C 27.000 267.662,27.631 267.928,27.883 267.272 C 28.077 266.765,27.816 266.200,27.387 266.200 C 27.078 266.200,27.000 266.341,27.000 266.900 M27.800 269.200 C 27.800 269.944,27.846 270.021,28.250 269.964 C 28.619 269.912,28.700 269.774,28.700 269.200 C 28.700 268.626,28.619 268.488,28.250 268.436 C 27.846 268.379,27.800 268.456,27.800 269.200 M28.600 270.800 C 28.600 271.255,28.691 271.400,28.979 271.400 C 29.403 271.400,29.647 270.955,29.472 270.500 C 29.250 269.921,28.600 270.145,28.600 270.800 M29.200 272.101 C 29.200 272.636,29.452 273.000,29.821 273.000 C 30.155 273.000,30.212 272.886,30.196 272.250 C 30.189 271.964,29.200 271.816,29.200 272.101 M30.133 273.533 C 30.060 273.607,30.000 273.877,30.000 274.133 C 30.000 274.678,30.875 274.814,31.072 274.300 C 31.318 273.660,30.596 273.070,30.133 273.533 M30.800 275.475 C 30.800 276.074,30.873 276.166,31.450 276.294 C 31.808 276.373,31.988 276.481,31.850 276.535 C 31.469 276.685,31.552 276.911,32.000 276.945 C 32.273 276.966,32.400 276.852,32.400 276.588 C 32.400 276.374,32.310 276.200,32.200 276.200 C 32.090 276.200,32.000 275.993,32.000 275.740 C 32.000 275.188,31.653 274.800,31.160 274.800 C 30.884 274.800,30.800 274.958,30.800 275.475 M32.400 277.879 C 32.400 278.312,32.726 278.600,33.216 278.600 C 33.317 278.600,33.400 278.330,33.400 278.000 C 33.400 277.493,33.322 277.400,32.900 277.400 C 32.506 277.400,32.400 277.501,32.400 277.879 M34.000 280.186 C 34.000 280.667,34.087 280.800,34.400 280.800 C 34.667 280.800,34.800 280.933,34.800 281.200 C 34.800 281.467,34.933 281.600,35.200 281.600 C 35.420 281.600,35.600 281.725,35.600 281.879 C 35.600 282.032,35.742 282.212,35.916 282.279 C 36.375 282.455,36.400 282.440,36.400 282.000 C 36.400 281.778,36.267 281.600,36.100 281.600 C 35.935 281.600,35.800 281.424,35.800 281.210 C 35.800 280.995,35.688 280.748,35.550 280.660 C 35.413 280.572,35.201 280.320,35.080 280.100 C 34.697 279.405,34.000 279.461,34.000 280.186 M37.857 285.030 C 37.875 285.267,38.041 285.501,38.226 285.549 C 38.412 285.597,38.608 285.809,38.663 286.018 C 38.718 286.228,38.895 286.400,39.058 286.400 C 39.220 286.400,39.395 286.560,39.446 286.755 C 39.497 286.950,39.733 287.125,39.970 287.143 C 40.698 287.198,40.505 286.352,39.576 285.424 C 38.648 284.495,37.802 284.302,37.857 285.030 M42.679 288.916 C 42.745 289.090,42.800 289.270,42.800 289.316 C 42.800 289.362,42.935 289.400,43.100 289.400 C 43.267 289.400,43.400 289.578,43.400 289.800 C 43.400 290.067,43.533 290.200,43.800 290.200 C 44.067 290.200,44.200 290.333,44.200 290.600 C 44.200 290.913,44.333 291.000,44.814 291.000 C 45.539 291.000,45.595 290.303,44.900 289.920 C 44.680 289.799,44.428 289.588,44.340 289.450 C 44.252 289.313,44.005 289.200,43.790 289.200 C 43.576 289.200,43.400 289.065,43.400 288.900 C 43.400 288.728,43.220 288.600,42.979 288.600 C 42.677 288.600,42.592 288.690,42.679 288.916 M46.400 291.784 C 46.400 292.274,46.688 292.600,47.121 292.600 C 47.499 292.600,47.600 292.494,47.600 292.100 C 47.600 291.678,47.507 291.600,47.000 291.600 C 46.670 291.600,46.400 291.683,46.400 291.784 M48.055 293.000 C 48.089 293.448,48.315 293.531,48.465 293.150 C 48.519 293.012,48.627 293.193,48.706 293.550 C 48.876 294.316,50.200 294.573,50.200 293.840 C 50.200 293.347,49.812 293.000,49.260 293.000 C 49.007 293.000,48.800 292.910,48.800 292.800 C 48.800 292.690,48.626 292.600,48.412 292.600 C 48.148 292.600,48.034 292.727,48.055 293.000 M50.650 293.932 C 50.513 293.988,50.400 294.257,50.400 294.530 C 50.400 295.158,51.449 295.152,51.568 294.524 C 51.667 294.004,51.207 293.708,50.650 293.932 M52.350 294.750 C 51.914 294.849,51.890 295.515,52.316 295.679 C 52.944 295.919,53.147 295.813,53.048 295.297 C 52.938 294.720,52.836 294.640,52.350 294.750 M53.850 295.532 C 53.311 295.750,53.573 296.400,54.200 296.400 C 54.655 296.400,54.800 296.309,54.800 296.021 C 54.800 295.729,54.346 295.316,54.134 295.416 C 54.115 295.424,53.988 295.477,53.850 295.532 M55.143 296.324 C 54.693 296.773,55.020 297.200,55.814 297.200 C 56.544 297.200,56.621 297.153,56.564 296.750 C 56.499 296.296,55.477 295.990,55.143 296.324 M57.650 297.132 C 57.058 297.372,57.384 298.000,58.100 298.000 C 58.653 298.000,58.800 297.921,58.800 297.621 C 58.800 297.122,58.253 296.889,57.650 297.132 M60.050 297.932 C 59.458 298.172,59.784 298.800,60.500 298.800 C 61.053 298.800,61.200 298.721,61.200 298.421 C 61.200 297.922,60.653 297.689,60.050 297.932 M62.200 299.100 C 62.200 299.567,62.267 299.600,63.200 299.600 C 64.230 299.600,64.676 299.026,63.884 298.721 C 63.037 298.397,62.200 298.585,62.200 299.100 M66.436 299.426 C 65.387 299.814,65.911 300.400,67.306 300.400 C 68.511 300.400,69.153 300.087,68.758 299.692 C 68.541 299.474,66.833 299.279,66.436 299.426 M99.600 341.200 C 99.600 341.910,100.289 342.065,100.499 341.402 C 100.662 340.890,100.477 340.600,99.988 340.600 C 99.690 340.600,99.600 340.739,99.600 341.200 M349.499 340.802 C 349.280 341.155,349.613 341.800,350.013 341.800 C 350.310 341.800,350.400 341.660,350.400 341.200 C 350.400 340.592,349.794 340.324,349.499 340.802 M100.400 343.486 C 100.400 344.119,100.458 344.200,100.913 344.200 C 101.626 344.200,101.568 342.938,100.850 342.836 C 100.455 342.780,100.400 342.860,100.400 343.486 M348.733 342.933 C 348.351 343.315,348.607 344.200,349.100 344.200 C 349.538 344.200,349.600 344.113,349.600 343.500 C 349.600 342.824,349.142 342.525,348.733 342.933 M102.000 345.800 C 102.000 346.267,102.089 346.400,102.400 346.400 C 102.667 346.400,102.800 346.533,102.800 346.800 C 102.800 347.067,102.933 347.200,103.200 347.200 C 103.467 347.200,103.600 347.333,103.600 347.600 C 103.600 347.911,103.733 348.000,104.200 348.000 C 105.088 348.000,104.959 347.568,103.696 346.304 C 102.432 345.041,102.000 344.912,102.000 345.800 M346.250 346.322 C 345.038 347.576,344.924 348.000,345.800 348.000 C 346.267 348.000,346.400 347.911,346.400 347.600 C 346.400 347.333,346.533 347.200,346.800 347.200 C 347.067 347.200,347.200 347.067,347.200 346.800 C 347.200 346.533,347.333 346.400,347.600 346.400 C 347.911 346.400,348.000 346.267,348.000 345.800 C 348.000 344.901,347.472 345.058,346.250 346.322 M105.800 349.087 C 105.800 349.542,105.881 349.600,106.514 349.600 C 107.140 349.600,107.220 349.545,107.164 349.150 C 107.062 348.432,105.800 348.374,105.800 349.087 M342.933 348.733 C 342.525 349.142,342.824 349.600,343.500 349.600 C 344.113 349.600,344.200 349.538,344.200 349.100 C 344.200 348.607,343.315 348.351,342.933 348.733 M108.450 349.530 C 107.905 349.755,108.174 350.400,108.814 350.400 C 109.335 350.400,109.418 350.333,109.364 349.952 C 109.300 349.506,108.926 349.334,108.450 349.530 M340.733 349.533 C 340.357 349.910,340.621 350.400,341.200 350.400 C 341.655 350.400,341.800 350.309,341.800 350.021 C 341.800 349.543,341.062 349.205,340.733 349.533 M113.093 350.348 C 112.484 350.796,112.924 351.101,114.265 351.159 C 115.589 351.217,115.628 351.205,115.565 350.759 C 115.497 350.282,113.611 349.968,113.093 350.348 M334.533 350.333 C 333.963 350.904,334.425 351.217,335.750 351.159 C 337.073 351.101,337.520 350.789,336.907 350.353 C 336.648 350.169,334.714 350.153,334.533 350.333 M117.021 351.183 C 116.631 351.430,116.900 352.000,117.408 352.000 C 117.725 352.000,117.812 351.894,117.764 351.566 C 117.691 351.067,117.423 350.929,117.021 351.183 M332.333 351.133 C 332.260 351.207,332.200 351.432,332.200 351.633 C 332.200 352.095,332.961 352.133,333.135 351.680 C 333.299 351.253,332.654 350.813,332.333 351.133 M118.750 351.959 C 118.272 352.055,118.307 352.613,118.800 352.742 C 119.021 352.800,119.200 353.015,119.200 353.223 C 119.200 353.467,119.342 353.600,119.600 353.600 C 119.822 353.600,120.000 353.733,120.000 353.900 C 120.000 354.067,120.178 354.200,120.400 354.200 C 120.667 354.200,120.800 354.333,120.800 354.600 C 120.800 354.822,120.933 355.000,121.100 355.000 C 121.267 355.000,121.400 355.178,121.400 355.400 C 121.400 355.658,121.533 355.800,121.777 355.800 C 121.985 355.800,122.200 355.979,122.258 356.200 C 122.315 356.420,122.495 356.600,122.658 356.600 C 122.820 356.600,123.000 356.420,123.058 356.200 C 123.126 355.940,123.064 355.800,122.881 355.800 C 122.727 355.800,122.600 355.656,122.600 355.479 C 122.600 355.070,119.943 352.400,119.535 352.400 C 119.367 352.400,119.200 352.285,119.165 352.144 C 119.129 352.004,118.942 351.920,118.750 351.959 M330.800 352.119 C 330.800 352.273,330.656 352.400,330.479 352.400 C 330.303 352.400,329.538 353.021,328.779 353.779 C 328.021 354.538,327.400 355.303,327.400 355.479 C 327.400 355.656,327.273 355.800,327.119 355.800 C 326.936 355.800,326.874 355.940,326.942 356.200 C 327.000 356.420,327.180 356.600,327.342 356.600 C 327.505 356.600,327.685 356.420,327.742 356.200 C 327.800 355.979,328.015 355.800,328.223 355.800 C 328.467 355.800,328.600 355.658,328.600 355.400 C 328.600 355.178,328.733 355.000,328.900 355.000 C 329.067 355.000,329.200 354.822,329.200 354.600 C 329.200 354.333,329.333 354.200,329.600 354.200 C 329.822 354.200,330.000 354.067,330.000 353.900 C 330.000 353.733,330.178 353.600,330.400 353.600 C 330.658 353.600,330.800 353.467,330.800 353.223 C 330.800 353.015,330.979 352.800,331.200 352.742 C 331.420 352.685,331.600 352.505,331.600 352.342 C 331.600 352.180,331.420 352.000,331.200 351.942 C 330.940 351.874,330.800 351.936,330.800 352.119 M123.036 357.648 C 123.113 358.184,123.698 358.354,123.875 357.892 C 124.044 357.452,123.862 357.200,123.374 357.200 C 123.072 357.200,122.988 357.311,123.036 357.648 M326.111 357.382 C 325.918 357.694,326.234 358.223,326.575 358.158 C 327.079 358.062,327.125 357.200,326.626 357.200 C 326.405 357.200,326.173 357.282,326.111 357.382 M123.800 360.674 C 123.800 362.027,123.922 362.295,124.404 361.998 C 124.930 361.672,124.801 359.514,124.250 359.436 C 123.823 359.375,123.800 359.438,123.800 360.674 M325.269 359.709 C 324.935 360.579,325.527 362.392,326.040 362.075 C 326.440 361.828,326.216 359.400,325.794 359.400 C 325.570 359.400,325.334 359.539,325.269 359.709 M124.600 366.200 C 124.600 366.910,125.289 367.065,125.499 366.402 C 125.662 365.890,125.477 365.600,124.988 365.600 C 124.690 365.600,124.600 365.739,124.600 366.200 M324.499 365.802 C 324.280 366.155,324.613 366.800,325.013 366.800 C 325.310 366.800,325.400 366.660,325.400 366.200 C 325.400 365.592,324.794 365.324,324.499 365.802 M125.400 368.486 C 125.400 369.119,125.458 369.200,125.913 369.200 C 126.626 369.200,126.568 367.938,125.850 367.836 C 125.455 367.780,125.400 367.860,125.400 368.486 M323.733 367.933 C 323.351 368.315,323.607 369.200,324.100 369.200 C 324.538 369.200,324.600 369.113,324.600 368.500 C 324.600 367.824,324.142 367.525,323.733 367.933 M127.000 370.800 C 127.000 371.267,127.089 371.400,127.400 371.400 C 127.667 371.400,127.800 371.533,127.800 371.800 C 127.800 372.067,127.933 372.200,128.200 372.200 C 128.467 372.200,128.600 372.333,128.600 372.600 C 128.600 372.911,128.733 373.000,129.200 373.000 C 130.088 373.000,129.959 372.568,128.696 371.304 C 127.432 370.041,127.000 369.912,127.000 370.800 M321.250 371.322 C 320.038 372.576,319.924 373.000,320.800 373.000 C 321.267 373.000,321.400 372.911,321.400 372.600 C 321.400 372.333,321.533 372.200,321.800 372.200 C 322.067 372.200,322.200 372.067,322.200 371.800 C 322.200 371.533,322.333 371.400,322.600 371.400 C 322.911 371.400,323.000 371.267,323.000 370.800 C 323.000 369.901,322.472 370.058,321.250 371.322 M130.800 374.087 C 130.800 374.542,130.881 374.600,131.514 374.600 C 132.140 374.600,132.220 374.545,132.164 374.150 C 132.062 373.432,130.800 373.374,130.800 374.087 M317.933 373.733 C 317.525 374.142,317.824 374.600,318.500 374.600 C 319.113 374.600,319.200 374.538,319.200 374.100 C 319.200 373.607,318.315 373.351,317.933 373.733 M133.450 374.530 C 132.905 374.755,133.174 375.400,133.814 375.400 C 134.335 375.400,134.418 375.333,134.364 374.952 C 134.300 374.506,133.926 374.334,133.450 374.530 M315.733 374.533 C 315.357 374.910,315.621 375.400,316.200 375.400 C 316.655 375.400,316.800 375.309,316.800 375.021 C 316.800 374.543,316.062 374.205,315.733 374.533 " stroke="none" fill="#ffffff" fill-rule="evenodd"></path></g>
</svg>